<svg xmlns="http://www.w3.org/2000/svg" width="87.241" height="61.92" viewBox="0 0 87.241 61.92">
  <path id="Caminho_9692" data-name="Caminho 9692" d="M3306.053-1501.233c-4.843-1.207-9.816,3.064-12.919,6.231a77.711,77.711,0,0,0-7.128,8.405l-2.023-8.168a45.317,45.317,0,0,0-2.6-8.7c-.952-2-2.367-4.04-4.526-4.857-2.362-.893-5.009.053-7.072,1.262-11.517,6.749-5.547,24.08-.008,32.818a64.4,64.4,0,0,0,4.849,6.6c-1.177.121-2.348.232-3.507.339-8.835.816-17.713,1.443-26.139,4.433-8.133,2.885-16.176,7.866-20.613,15.476-.587,1.008.926.554,1.383.392a6.51,6.51,0,0,0,3.17-2.143c4.674-8.015,13.094-11.543,21.873-13.192,8.521-1.6,17.255-1.686,25.81-3,2.828,3.187,5.861,6.2,8.875,9.2,1,.995,5.333-2.293,4.833-2.79-2.45-2.434-4.989-4.977-7.437-7.646.228-.057.457-.106.685-.166,8.264-2.153,16.569-6.424,22.232-12.939a22.638,22.638,0,0,0,5.556-11.308C3311.932-1495.044,3310.552-1500.112,3306.053-1501.233Zm-35.133-4.748-.327.179C3270.722-1505.954,3270.834-1506.027,3270.92-1505.98Zm33.406,23.685a23.511,23.511,0,0,1-7.585,8.219c-4.654,3.123-10.061,4.669-15.585,5.588-7.2-8.21-13.166-17.621-12.924-28.808a18.837,18.837,0,0,1,.548-4.455,22.274,22.274,0,0,1,1.657-3.834,3.884,3.884,0,0,1,1,.037,5.016,5.016,0,0,1,2.067.845,8.748,8.748,0,0,1,2.39,2.776c1.654,2.786,2.283,6.021,3.053,9.125q1.54,6.223,3.082,12.445c.255,1.028,4.386-1.769,4.693-2.27a75.466,75.466,0,0,1,8.8-11.77c1.29-1.4,2.977-3.895,5.032-3.919a6.055,6.055,0,0,1,4.953,3.257C3307.767-1491.177,3306.33-1485.989,3304.326-1482.3Z" transform="translate(-3224.231 1508.678)" fill="#fff2f4"/>
</svg>
