<svg xmlns="http://www.w3.org/2000/svg" width="504.863" height="298.909" viewBox="0 0 504.863 298.909">
  <g id="Grupo_443" data-name="Grupo 443" transform="translate(703.612 -502.449)">
    <g id="Grupo_442" data-name="Grupo 442" transform="translate(-703.612 502.449)">
      <g id="Grupo_435" data-name="Grupo 435" transform="translate(3.962 21.297)">
        <g id="Grupo_434" data-name="Grupo 434">
          <path id="Caminho_9629" data-name="Caminho 9629" d="M-585.929,612.527v4.355h-61.386v-4.355c11.3-.816,15.245-2.314,15.245-6.807,0-2.449-1.088-5.716-2.858-10.072l-3.131-7.893h-33.347c-3.13,8.166-5.036,13.611-5.036,17.422,0,5.172,3.948,6.8,13.884,7.35v4.355h-38.656v-4.355c8.438-1.088,12.658-3.539,17.286-15.245l24.227-60.433-3.538-8.575a114.711,114.711,0,0,0,22.185-12.931h3.267l37.022,87.247C-597.226,610.756-594.23,612.39-585.929,612.527Zm-54.716-31.578-14.427-36.342-13.747,36.342Z" transform="translate(701.213 -515.343)" fill="#fff"/>
          <path id="Caminho_9630" data-name="Caminho 9630" d="M-544.959,567.078c0,24.227-13.747,40.424-34.571,40.424a29.6,29.6,0,0,1-15.925-4.492v15.382c0,7.348,2.314,9.527,11.705,10.615v4.357h-47.91v-4.357c7.213-.68,8.982-2.312,8.982-7.893V556.326c0-6.669-1.769-8.711-8.982-10.072v-4.085c11.978-3.13,26.405-7.35,35.932-10.344h.273v9.936c4.355-6.124,12.658-9.936,20.689-9.936C-556.937,531.825-544.959,545.981-544.959,567.078Zm-29.4,5.308c0-15.788-5.307-26.405-13.066-26.405a14.122,14.122,0,0,0-8.03,2.585v42.195c1.633,6.669,4.763,9.936,8.848,9.936C-579.258,600.7-574.359,589.263-574.359,572.386Z" transform="translate(746.538 -504.602)" fill="#fff"/>
          <path id="Caminho_9631" data-name="Caminho 9631" d="M-500.755,585.317c-5.581,13.337-19.736,22.185-35.524,22.185-23.14,0-38.52-15.108-38.52-37.84s16.2-37.838,40.562-37.838c19.328,0,32.257,12.8,32.257,31.986h-45.6c.136,16.471,10.072,27.358,25.044,27.358a28.178,28.178,0,0,0,18.783-7.758ZM-547.3,558.095h2.993c10.073,0,16.743-5.171,16.743-12.8,0-4.626-2.722-7.893-6.669-7.893C-541.315,537.406-546.215,545.436-547.3,558.095Z" transform="translate(783.592 -504.602)" fill="#fff"/>
          <path id="Caminho_9632" data-name="Caminho 9632" d="M-491.126,569.255v21.914c0,7.485,2.314,9.664,11.705,10.617v4.355h-47.911v-4.355c7.214-.681,8.983-2.314,8.983-7.9V556.326c0-6.669-1.769-8.711-8.983-10.072v-4.085c11.434-3.267,25.317-7.35,34.437-10.344h.273l1.5,19.055c3.4-9.8,11.842-19.055,21.369-19.055,7.215,0,11.978,4.763,11.978,11.978a14.557,14.557,0,0,1-2.449,7.758h-24.636A80.616,80.616,0,0,0-491.126,569.255Z" transform="translate(814.525 -504.602)" fill="#fff"/>
          <path id="Caminho_9633" data-name="Caminho 9633" d="M-430.766,595.787l2.449,2.45c-4.9,9.528-15.108,15.925-25.452,15.925-12.8,0-21.234-7.35-21.234-18.375V548.556h-8.983v-4.083c13.2-5.989,22.05-12.523,31.306-22.867h4.355v18.239h20.008l-1.906,8.711H-447.78v44.507c0,6.263,1.361,8.168,5.716,8.168C-438.253,601.231-433.761,599.054-430.766,595.787Z" transform="translate(842.771 -511.262)" fill="#fff"/>
          <path id="Caminho_9634" data-name="Caminho 9634" d="M-368.766,590.626C-372.3,600.7-380.879,607.5-390.408,607.5c-8.711,0-15.243-3.947-16.332-9.936-4.493,5.989-13.884,9.936-23.548,9.936-11.162,0-18.51-5.716-18.51-14.292,0-6.806,4.626-13.066,16.333-17.422l25.725-9.664V550.2c0-6.942-4.085-11.57-10.344-11.57a9.576,9.576,0,0,0-1.906.137V565.58a27.792,27.792,0,0,1-14.019,4.357c-7.077,0-11.705-3.267-11.705-9.666,0-16.469,20.824-28.447,41.922-28.447,14.018,0,23.274,8.438,23.274,21.1v37.156c0,2.316.545,3.132,2.179,3.132,1.9,0,4.083-1.906,5.444-4.628Zm-37.973-17.968c-8.03,3.4-13.476,9.12-13.476,14.019a6.144,6.144,0,0,0,6.534,6.534,10.751,10.751,0,0,0,6.942-2.449Z" transform="translate(865.703 -504.602)" fill="#fff"/>
        </g>
      </g>
      <g id="Grupo_440" data-name="Grupo 440" transform="translate(0 148.787)">
        <g id="Grupo_437" data-name="Grupo 437" transform="translate(138.591 6.448)">
          <g id="Grupo_436" data-name="Grupo 436">
            <path id="Caminho_9635" data-name="Caminho 9635" d="M-603.777,699.437c-3.267,0-4.356.953-5.716,4.492h-2.449l-7.76-37.159,4.63-1.088c8.438,19.328,23.819,32.123,38.246,32.123,13.066,0,19.736-4.765,19.736-13.2,0-9.664-11.433-14.564-24.5-19.873C-598.059,658.06-616.57,650.3-616.57,630.7c0-17.557,15.245-28.992,37.838-28.992,13.068,0,19.873,5.308,26.95,5.308,2.859,0,4.22-.951,5.308-4.626h2.314l7.35,35.932-4.356.816c-7.077-18.375-22.187-30.623-37.567-30.623-8.846,0-14.563,4.22-14.563,10.344,0,9.8,12.386,15.243,26,20.961,16.469,6.942,34.3,14.835,34.3,31.985,0,19.873-16.877,32.8-43.146,32.8C-589.077,704.61-596.562,699.437-603.777,699.437Z" transform="translate(619.702 -592.999)" fill="#fff"/>
            <path id="Caminho_9636" data-name="Caminho 9636" d="M-562.263,656.03c0-22.73,16.469-37.838,41.242-37.838s41.24,15.108,41.24,37.838-16.469,37.84-41.24,37.84S-562.263,678.762-562.263,656.03Zm53.083,0c0-19.463-4.763-32.394-11.841-32.394s-11.842,12.931-11.842,32.394,4.765,32.394,11.842,32.394S-509.18,675.495-509.18,656.03Z" transform="translate(657.133 -582.258)" fill="#fff"/>
            <path id="Caminho_9637" data-name="Caminho 9637" d="M-464.5,702.331v4.355h-45.188v-4.355c7.214-.68,8.983-2.314,8.983-7.895v-73.5c0-6.669-1.769-8.713-8.983-10.072V606.78c11.978-3.267,26.405-7.35,35.934-10.344h.273v98C-473.481,700.017-471.712,701.65-464.5,702.331Z" transform="translate(691.394 -596.436)" fill="#fff"/>
            <path id="Caminho_9638" data-name="Caminho 9638" d="M-428.368,682.154l2.449,2.449c-4.9,9.529-15.108,15.925-25.452,15.925-12.794,0-21.232-7.35-21.232-18.375V634.923h-8.983V630.84c13.2-5.989,22.05-12.523,31.306-22.867h4.355v18.239h20.007l-1.9,8.711h-17.559V679.43c0,6.263,1.361,8.168,5.716,8.168C-435.853,687.6-431.362,685.421-428.368,682.154Z" transform="translate(709.707 -588.918)" fill="#fff"/>
            <path id="Caminho_9639" data-name="Caminho 9639" d="M-366.365,676.993c-3.54,10.072-12.115,16.877-21.642,16.877-8.713,0-15.245-3.948-16.333-9.936-4.493,5.989-13.884,9.936-23.548,9.936-11.16,0-18.51-5.716-18.51-14.292,0-6.807,4.628-13.066,16.333-17.422l25.725-9.664V636.567c0-6.942-4.083-11.57-10.344-11.57a9.577,9.577,0,0,0-1.906.137v26.813A27.786,27.786,0,0,1-430.61,656.3c-7.077,0-11.705-3.265-11.705-9.664,0-16.469,20.824-28.446,41.923-28.446,14.019,0,23.274,8.438,23.274,21.1v37.157c0,2.316.545,3.132,2.179,3.132,1.906,0,4.083-1.906,5.444-4.628Zm-37.975-17.968c-8.03,3.4-13.474,9.12-13.474,14.019a6.143,6.143,0,0,0,6.532,6.534,10.751,10.751,0,0,0,6.942-2.449Z" transform="translate(732.637 -582.258)" fill="#fff"/>
          </g>
        </g>
        <g id="Grupo_439" data-name="Grupo 439">
          <g id="Grupo_438" data-name="Grupo 438">
            <path id="Caminho_9640" data-name="Caminho 9640" d="M-617.382,713.756c0-9.685-3.749-16.091-8.28-22.184-6.56,7.5-16.246,13.592-33.273,13.592-24.839,0-44.677-7.811-44.677-29.213,0-13.278,6.248-22.182,24.526-26.243-8.749-7.968-13.747-15.935-13.747-27.026,0-21.4,17.651-30.149,35.929-30.149,21.87,0,31.243,8.592,31.243,20.776,0,10.779-7.966,19.371-25.15,25.307q5.156,3.516,12.184,7.968c8.28,5.312,16.715,10.623,23.744,17.339a120.263,120.263,0,0,0,2.656-22.806h-12.341v-3.125h27.181v3.125h-10.934a125.58,125.58,0,0,1-2.968,26.4c7.5,8.28,13.59,16.4,13.59,31.712,0,22.339-18.589,43.427-38.9,43.427-13.592,0-21.4-5.936-21.4-15.778,0-7.811,5.467-13.121,12.966-13.121,7.968,0,12.5,3.9,12.5,11.246a20.967,20.967,0,0,1-.938,5.624h-5.467c-1.562,4.688-.624,8.28,5.624,8.28C-622.694,738.906-617.382,726.876-617.382,713.756Zm-10.936-25.464c-5.155-5.467-10.779-10-20.15-16.246-11.4-7.5-21.09-13.591-28.432-20-1.562,3.282-2.344,8.749-2.344,19.528,0,22.182,8.749,29.525,24.682,29.525C-641.751,701.1-633.628,695.321-628.318,688.292Zm-25.307-51.552c9.685-5.155,9.842-12.184,9.842-22.494,0-12.5-4.686-18.434-13.592-18.434-6.56,0-14.371,3.282-14.371,15.935C-671.745,621.433-667.839,626.9-653.625,636.74Z" transform="translate(703.612 -592.532)" fill="#fff"/>
          </g>
        </g>
      </g>
      <g id="Grupo_441" data-name="Grupo 441" transform="translate(144.154)">
        <path id="Caminho_9641" data-name="Caminho 9641" d="M-600.176,520.823v3.355h-16.158V502.635h15.727v3.354h-11.725v5.6h10.4v3.294h-10.4v5.939Z" transform="translate(616.334 -502.328)" fill="#fff"/>
        <path id="Caminho_9642" data-name="Caminho 9642" d="M-569.421,518.331c0,3.693-2.892,5.847-8.432,5.847h-10.711V502.635h10.095c5.17,0,7.94,2.185,7.94,5.6a5.164,5.164,0,0,1-2.77,4.74A5.3,5.3,0,0,1-569.421,518.331Zm-15.141-12.556v5.939h5.662c2.77,0,4.339-.984,4.339-2.955,0-2-1.569-2.985-4.339-2.985Zm11.109,12.156c0-2.155-1.63-3.108-4.646-3.108h-6.463v6.217h6.463C-575.083,521.04-573.453,520.085-573.453,517.931Z" transform="translate(634.431 -502.328)" fill="#fff"/>
        <path id="Caminho_9643" data-name="Caminho 9643" d="M-560.029,513.528c0-6.37,4.924-11.079,11.6-11.079s11.6,4.677,11.6,11.079-4.924,11.078-11.6,11.078S-560.029,519.9-560.029,513.528Zm19.172,0a7.341,7.341,0,0,0-7.571-7.571,7.341,7.341,0,0,0-7.57,7.571,7.34,7.34,0,0,0,7.57,7.57A7.341,7.341,0,0,0-540.857,513.528Z" transform="translate(653.026 -502.449)" fill="#fff"/>
        <path id="Caminho_9644" data-name="Caminho 9644" d="M-529.053,513.528c0-6.37,4.924-11.079,11.6-11.079s11.6,4.677,11.6,11.079-4.924,11.078-11.6,11.078S-529.053,519.9-529.053,513.528Zm19.173,0a7.341,7.341,0,0,0-7.571-7.571,7.341,7.341,0,0,0-7.57,7.571,7.34,7.34,0,0,0,7.57,7.57A7.341,7.341,0,0,0-509.881,513.528Z" transform="translate(673.212 -502.449)" fill="#fff"/>
        <path id="Caminho_9645" data-name="Caminho 9645" d="M-489.728,515.161l-3.416,3.508v5.508h-4V502.635h4v11.048l10.648-11.048H-478l-9.048,9.633,9.6,11.91h-4.678Z" transform="translate(694.004 -502.328)" fill="#fff"/>
      </g>
    </g>
  </g>
</svg>
